<?xml version="1.0" encoding="utf-8"?>
<!-- Generator: Adobe Illustrator 14.0.0, SVG Export Plug-In . SVG Version: 6.00 Build 43363)  -->
<!DOCTYPE svg PUBLIC "-//W3C//DTD SVG 1.1//EN" "http://www.w3.org/Graphics/SVG/1.1/DTD/svg11.dtd">
<svg version="1.1" id="Layer_1" xmlns="http://www.w3.org/2000/svg" xmlns:xlink="http://www.w3.org/1999/xlink" x="0px" y="0px"
	 width="612px" height="792px" viewBox="0 0 612 792" enable-background="new 0 0 612 792" xml:space="preserve">
<g>
	<polygon fill-rule="evenodd" clip-rule="evenodd" fill="#FFFFFF" points="209,300 401.756,300 401.756,492.756 209,492.756 
		209,300 	"/>
	<path fill-rule="evenodd" clip-rule="evenodd" fill="#AAC0C2" d="M310.689,449.938l-3.678,4.313l-13.892-0.32
		c0,0-3.357,3.995-2.716,2.077c0,0-0.48,2.713,4.793,4.474c0,0,16.288,4.789,33.223,0.476c16.929-4.308,28.428-18.524,31.626-22.678
		c0,0,3.191,1.275,8.621-8.308c0,0,8.468-18.049,9.903-30.825c0,0,3.438-46.563-1.115-51.592l10.063-8.867l-6.47-18.925
		l-18.926,5.269l-14.856,8.868l1.676,1.436c0,0,4.794,25.876,2.156,34.738v16.053c0,0,18.69,11.26,5.51,31.146
		c0,0-5.27,11.979-18.686,18.69c0,0-2.877-1.677-6.47-1.677l-3.354,5.27L310.689,449.938L310.689,449.938z"/>
	<path fill-rule="evenodd" clip-rule="evenodd" fill="#AAC0C2" d="M251.752,371.033h11.5c0,0-1.917,16.289,7.026,16.609l0.32,6.39
		c0,0-4.153,0.481-3.834,8.948l-3.197,5.108l6.391,7.025c0,0-1.596,5.436,1.595,6.711c0,0,1.123,0.801,4.153,0.961
		c0,0,1.441,2.077,3.995,2.077l-2.237,8.621c0,0-9.583-1.595-10.54,3.038l-4.313-3.038c0,0-1.756-1.916-1.917-2.872
		c0,0-12.62-26.996-9.263-42.329l-1.121-17.411L251.752,371.033L251.752,371.033z"/>
	<path fill-rule="evenodd" clip-rule="evenodd" fill="#AAC0C2" d="M248.555,330.781l-3.514,16.613l8.627,6.07l-0.96,12.135
		l10.543,2.878c0,0,3.833-3.834,8.622-3.193c4.794,0.636,7.667-3.833,7.667-3.833l0.22-2.437c0,0,4.894-31.427,5.535-32.387
		l-27.794-2.237L248.555,330.781L248.555,330.781z"/>
	<path fill-rule="evenodd" clip-rule="evenodd" fill="#E53230" d="M295.833,393.712l-8.622,8.788l2.077,7.825l7.026-3.037
		c0,0,4.793,4.314,0.321,5.274c0,0,4.789,7.827-3.995,9.903c0,0-0.64,3.353-6.87,1.596l-2.873,10.704c0,0,5.27-3.036,6.39-3.036
		l3.672,0.96c0,0,7.026-4.153,7.827-4.474c0.796-0.321,5.589,2.076,5.589,2.076s14.378-10.063,17.249-14.697
		c0,0,14.857,11.185,11.181,19.967c0,0,13.26,2.076,23.644-24.435c0,0,5.91-15.338-4.634-21.408l-10.224-7.667l-1.917,4.474
		c0,0-6.711,10.543-8.307,11.179c-1.596,0.642-12.455,12.141-23.799,13.101l-0.636-8.467c0,0-3.357,1.277-4.794-0.32
		c0,0-9.423,4.313-6.55-7.026L295.833,393.712L295.833,393.712z"/>
	<path fill-rule="evenodd" clip-rule="evenodd" fill="#214B9B" d="M290.244,410.092l-1.316-1.441l-6.951,1.675
		c0,0-13.055,9.223-2.518,14.258l1.682-3.118c0,0,4.269,4.064,10.358,2.758c0.841-0.181,2.277-0.721,2.878-0.961
		c0.6-0.241,4.373-3.714,3.652-10.063c-0.72-6.345,1.196-4.429-0.72-5.51c-1.917-1.075-3.233-0.24-3.233-0.24L290.244,410.092
		L290.244,410.092z"/>
	<path fill-rule="evenodd" clip-rule="evenodd" fill="#214B9B" d="M286.17,432.85l-2.037,1.075l-0.835,0.841l-6.23-0.96
		c0,0-22.764,1.796-2.757,10.662l6.23,1.438l-1.316,9.103l7.427-0.836c0,0,0.596,2.513,3.472,1.196
		c2.877-1.316,6.47-5.149,6.109-11.86c-0.36-6.711-4.674-12.22-6.349-12.1C288.207,431.529,286.17,432.85,286.17,432.85
		L286.17,432.85z"/>
	<path fill-rule="evenodd" clip-rule="evenodd" fill="#214B9B" d="M273.71,445.305l-3.233,9.942c0,0-16.053-7.546-11.739-16.407
		l2.876-5.155l2.272,0.481l2.277,0.835c0,0,0.721,8.747,6.47,9.708C278.384,445.666,273.71,445.305,273.71,445.305L273.71,445.305z"
		/>
	<path fill-rule="evenodd" clip-rule="evenodd" fill="#214B9B" d="M273.154,401.063c0,0,5.59,5.431,13.256,1.598l2.237,5.909
		c0,0-18.53,2.397-11.023,14.692c0,0-6.386,1.281-7.667-2.872l-0.321-4.955l-5.428-7.025L273.154,401.063L273.154,401.063z"/>
	<path fill-rule="evenodd" clip-rule="evenodd" fill="#E53230" d="M272.514,400.423l-5.27,2.873c0,0-0.96-7.987,3.033-8.942
		l2.716,2.077L272.514,400.423L272.514,400.423z"/>
	<path fill-rule="evenodd" clip-rule="evenodd" fill="#FACE4A" d="M326.063,355.581l9.942,18.325c0,0,5.509,0.241,7.186,2.637
		c1.677,2.397,0.721,4.794,0.721,4.794l5.51,2.152l0.961-1.917l1.676-1.797c11.98-12.455,2.862-6.3,2.753-6.35
		c-0.12-0.051-5.148-0.235-5.148-0.235l4.553-5.515c0,0,1.231-5.564,0.239-3.593c-3.757,7.451-6.95,4.074-6.95,4.074l-7.906-4.549
		c0,0,9.583,1.917,8.867-6.229c0,0-1.682,6.946-8.628,2.632c0,0,8.148,3.597,8.628-5.75c0,0-4.644,5.899-10.544,0
		c-0.479-0.481,5.03-0.481,7.186-5.749l-15.572-0.956L326.063,355.581L326.063,355.581z"/>
	<path fill-rule="evenodd" clip-rule="evenodd" fill="#FACE4A" d="M316.359,385.405c0,0,0.24,5.035-0.48,5.755
		c-0.721,0.715,1.437,8.382-0.721,9.103c-2.156,0.721,0.241,3.112,0.241,3.112s19.646-3.353,24.199-26.591l-2.397-1.917
		l-10.298-18.691c0,0,4.549-15.812,4.789-17.009c0.241-1.2-7.666,0.481-7.666,0.481s-5.51-1.441-14.137,2.873
		c0,0,2.877-4.553,4.554-5.029c1.677-0.48,3.111-0.961,4.549-0.961c1.441,0-7.906-2.397-12.456,2.157l-1.441-7.667
		c0,0-6.224,2.637-7.426,14.376l-5.509,3.114l-7.426-3.353c0,0,5.028,8.387,5.028,5.269c0-0.239,2.637,4.554,2.637,4.554
		l-19.165,10.543c0,0-7.907,0.235-9.108,3.593l-1.196,3.112l-0.48,4.555l5.27,10.302c0,0,9.108,0,11.024-0.721
		c1.916-0.721,9.103-6.709,9.103-6.709l-6.465-4.789l-0.481-0.962l5.99-2.156l-0.481,2.397l4.313,2.637
		c0,0,4.074-8.388,12.937-2.878c0,0,5.353,3.993-4.469,8.548l4.709,4.153l1.677-0.241c0,0-3.114-4.553,2.877-4.553
		c5.99,0,2.157,2.157,2.633,2.878C311.566,385.405,316.359,385.405,316.359,385.405L316.359,385.405z"/>
	<polygon fill-rule="evenodd" clip-rule="evenodd" fill="#FACE4A" points="221.958,439.795 226.992,456.563 238.011,460.402 
		235.618,443.868 224.354,439.555 221.958,439.795 	"/>
	<path fill-rule="evenodd" clip-rule="evenodd" d="M388.644,339.475c-3.211,2.722-6.712,5.393-9.993,7.979
		c1.682,9.924,3.213,19.986,3.023,30.67l-1.006,14.712c-1.057,13.271-4.89,25.396-10.689,36.655c-1.485,2.587-3.258,5.129-5.7,6.855
		c7.091-10.019,10.064-21.854,12.266-33.979c1.296-8.001,2.156-16.338,2.202-24.675c-0.331-9.538-0.525-19.507-2.873-28.273
		l-0.095-0.095l-3.789,2.493l-0.044,0.239l1.53,15.952c1.582,22.669-0.145,46.003-9.057,65.605
		c-4.169,9.532-11.98,17.488-20.651,22.854c-11.739,7.717-27.647,9.348-42.121,6.42c-3.257-0.766-6.47-1.866-9.247-3.733
		c9.152,2.683,20.556,4.169,30.621,2.057c9.633-2.251,19.165-5.699,26.401-12.745c12.03-11.163,18.64-25.921,20.127-42.118
		c1.53-17.825,2.302-37.857-1.006-55.441c3.111-2.157,6.37-4.124,9.247-6.376l-4.168-13.846l-0.671,0.045l-22.188,5.274
		c1.871,9.678,3.161,20.222,1.916,30.38c-0.336,1.676-2.063,2.442-3.543,2.827c-3.883,0.766-7.426-1.392-9.729-4.409
		c-0.671-0.96-1.245-2.011-1.296-3.256c3.453,2.106,8.437,2.296,12.366,0.859c0.139-5.363-0.336-10.778-0.962-15.958
		c-0.475-4.308-1.53-8.432-2.392-12.505l28.893-8.192l4.745,16.864l0.476-0.19l4.743-3.688l-0.095-0.531l-6.086-16.388l-0.574,0.05
		l-16.965,4.888l-12.504,5.511l11.694-7.716l20.792-6.181h0.145l6.255,19.665V339.475L388.644,339.475z"/>
	<path fill-rule="evenodd" clip-rule="evenodd" d="M288.518,324.84c-2.924,5.891-4.12,12.505-5.701,18.925
		c-1.15,5.035-2.11,10.114-3.021,15.193c-0.476-4.984,0.574-9.874,1.055-14.808c0.72-5.319,1.677-10.543,2.492-15.813l-25.111-1.916
		l-8.287,5.319c-1.151,4.649-2.062,9.439-3.067,14.182c2.972,2.397,6.275,4.793,9.298,7.091c-0.625,4.123-1.342,8.336-1.873,12.555
		l9.343,2.251c1.441-2.827,4.508-3.928,7.335-4.357c0.141-9.153,1.386-18.066,2.777-26.838l-0.96-0.285l-20.222-4.599
		c0.481-0.671,1.392-0.24,2.063-0.24l20.751,2.536l6.895-4.789l-0.044,0.526l-5.8,6.325l-2.106,19.26
		c-0.24,2.688-0.431,5.42-0.386,8.146l0.146,0.146l13.08-7.616c0.431-0.241,0.96-0.386,1.296-0.817
		c-0.866-2.011,0.285-3.928,1.34-5.51c0.285,2.298,1.917,4.215,3.878,5.606c-6.945,4.023-13.511,7.856-19.836,12.694
		c-2.011-1.005-4.789-1.145-6.755,0c-1.631,0.867-3.118,2.544-4.074,4.219c-0.095-0.859-0.049-1.726,0.049-2.491
		c-5.369-1.292-10.783-2.397-16.388-3.208c0-0.575,0-1.295-0.531-1.631c-0.429-0.335-0.956-0.574-1.581-0.525
		c0.1-1.536-0.096-3.357-1.626-4.124c-1.106-0.526-2.878-0.766-3.884,0.145c-0.766,0.621-1.246,1.532-1.392,2.492
		c-0.715-1.392-2.392-2.156-3.974-2.207c-1.631-0.139-3.357,0.625-4.268,2.112c-0.43,0.715-0.766,1.487-0.911,2.348
		c-0.671-1.202-0.235-2.828,0.05-4.074c0.766-1.677,2.397-2.538,4.024-2.878c1.917-0.234,3.737,0.481,4.793,1.728
		c0.766-1.247,2.302-2.872,4.074-2.777c1.487,0.044,2.972,0.525,3.783,1.866c0.625,0.961,0.771,2.013,0.865,3.163
		c1.006,0.291,2.252,0.865,2.443,2.011c0.625,0.241,1.196,0.481,1.871,0.481c0.476-3.543,1.051-7.045,1.817-10.494l-9.388-6.23
		l4.263-17.774c3.403-2.111,6.705-4.363,10.108-6.52L288.518,324.84L288.518,324.84z"/>
	<path fill-rule="evenodd" clip-rule="evenodd" d="M307.353,333.899c0.189,0.905,0.285,1.865,0.235,2.922l0.145,0.095
		c3.452-1.441,8.001-2.397,11.454-0.386c-5.274-1.006-10.588,1.342-13.852,5.465l-1.721,2.441c1.625-3.543,2.156-8.386,0.525-12.074
		c-3.643,3.833-5.559,8.818-5.319,14.327c-2.536,0.815-4.838,2.061-7.141,3.403c-1.625-2.108-4.213-3.783-6.8-4.79
		c2.536-0.099,5.08,0.811,7.231,2.057l3.307-1.962c0.766-6.754,4.314-13.224,10.209-16.869
		C306.582,330.11,306.917,332.026,307.353,333.899L307.353,333.899z"/>
	<path fill-rule="evenodd" clip-rule="evenodd" d="M333.659,335.334c0.476,3.068-0.095,6.275-1.006,9.007
		c2.827,0.285,4.309,3.017,7.04,3.593c2.207,0.43,4.795,0.145,6.376-1.436c-0.146,1.341-1.392,2.441-2.638,2.873
		c-2.491,1.245-5.459,0.384-7.666-0.957c-1.486-0.431-3.213-0.481-4.839-0.285c-2.448,3.256-5.609,6.325-9.393,7.616
		c4.169-3.979,8.241-9.248,9.057-15.333c-5.944,0.911-11.163,5.509-14.326,10.348c0.19-5.509,4.073-10.924,9.342-13.175
		C328.099,336.435,330.781,335.714,333.659,335.334L333.659,335.334z"/>
	<path fill-rule="evenodd" clip-rule="evenodd" d="M311.375,341.705c3.213-0.911,6.275-2.392,9.92-2.297
		c0.049,0.044,0.049,0.19-0.046,0.24c-3.599,0.525-6.616,2.443-9.683,4.023l-5.796,3.448c1.627-3.973,5.22-7.616,9.153-9.627
		C313.628,338.783,312.331,340.319,311.375,341.705L311.375,341.705z"/>
	<path fill-rule="evenodd" clip-rule="evenodd" d="M322.255,353.494c0.91-2.637,2.251-5.129,2.492-8.002l-0.101-0.095
		c-1.146,0.241-2.251,0.526-3.303,0.956c1.721-1.917,3.879-2.777,6.129-3.593C326.327,346.594,324.842,350.282,322.255,353.494
		L322.255,353.494z"/>
	<path fill-rule="evenodd" clip-rule="evenodd" d="M316.936,343.097c-1.582,2.492-3.979,4.838-6.855,5.749
		C311.521,346.113,314.108,344.247,316.936,343.097L316.936,343.097z"/>
	<path fill-rule="evenodd" clip-rule="evenodd" d="M339.117,354.79c1.582,1.291,4.029,2.012,6.281,1.481
		c1.195-0.38,2.297-1.101,3.112-2.106c-0.19,1.392-1.056,2.778-2.441,3.354c-3.213,1.441-7.191,0.53-9.684-1.821
		c-1.53-1.722-3.492-3.063-5.745-3.258c0.767-0.525,2.107-0.43,3.114-0.43c3.642,0.574,8.336,1.101,10.828-1.962
		C344.103,352.729,341.565,354.07,339.117,354.79L339.117,354.79z"/>
	<path fill-rule="evenodd" clip-rule="evenodd" d="M317.076,354.12c0.53,0.571,0.77,1.292,0.77,2.151
		c-1.916-1.625-4.553-1.916-7.141-1.771c-2.207,0.291-4.699,0.291-6.661-0.525c4.074,0.095,8.096-2.397,12.17-0.576L317.076,354.12
		L317.076,354.12z"/>
	<path fill-rule="evenodd" clip-rule="evenodd" d="M361.161,354.646c-0.62,0.24-1.246,0.766-1.485,1.392
		c-0.241,0.62-0.095,1.436,0.239,1.96c0.43,0.53,1.006,0.911,1.677,0.961c0.815,0.095,1.485-0.385,1.967-0.866
		c-0.24,1.151-1.102,1.967-2.252,2.207c-1.006,0.19-1.872-0.194-2.492-0.766c-0.962-0.77-1.006-2.156-0.625-3.211
		C358.765,355.22,359.87,354.456,361.161,354.646L361.161,354.646z"/>
	<path fill-rule="evenodd" clip-rule="evenodd" d="M337.157,372.995c1.53,0.101,3.207,0.721,3.783,2.302
		c1.104,3.498-0.576,6.996-1.918,10.013c-5.319,10.019-15.332,16.344-25.205,20.892c-0.189-1.481,0.05-2.967-0.239-4.407
		c-0.907,0.624-2.394-0.526-2.968,0.669l0.095,7.002c12.695-2.973,24.101-11.601,31.051-22.91
		c-4.794,13.757-17.971,20.942-30.67,25.352l-2.297,0.671l-0.146-0.19l-0.38-8.197c-0.96,0.096-2.156,0.19-3.023-0.285l-0.715-0.385
		c-1.202,0.816-3.068,1.102-4.553,0.67c-1.771-0.62-3.354-2.201-3.834-4.022c-0.24-1.677,0-3.453,0.716-4.89l-0.57-0.43
		c-2.878,2.732-5.034,6.135-8.148,8.483c1.007,2.201,1.677,4.599,2.348,6.944c-3.354-1.625-7.141-0.189-9.728,1.871
		c-2.253,1.823-4.359,4.264-4.074,7.428c0.19,1.771,1.101,3.352,2.777,4.022c0.436-0.62,0.481-1.53,0.771-2.251
		c-0.67-0.812-1.247-1.817-1.441-2.924c2.156,2.348,5.084,4.745,8.436,5.175c1.292,0,2.443-0.525,3.019-1.722
		c0.859-2.301-1.005-4.168-2.538-5.654c-1.346-1.297-2.928-2.303-4.363-3.257c3.787,0.139,7.091,2.441,9.247,5.604
		c0.911,1.485,1.342,3.498,0.671,5.225c-0.671,1.149-2.057,2.057-3.593,2.057c-1.246,0.194-2.398-0.235-3.498-0.477l-1.867,8.672
		c2.011,0.911,3.928,2.012,5.459,3.738c-5.224-1.727-10.539-3.548-16.579-3.018c-2.011,0.43-4.553,1.102-5.363,3.207
		c0.043,2.303,1.815,4.359,3.877,5.08c2.732,1.201,5.799,1.631,8.867,2.012c1.146,0.48,2.633,1.057,2.732,2.492
		c-0.049,0.67-0.481,1.392-1.201,1.631l-1.101,0.24l-1.101,4.744c3.112-0.189,6.705-0.386,8.241-3.498
		c1.342-3.308,2.158-7.431,0.861-11.024c2.442,3.118,2.732,8.103,0.911,11.601c-0.525,1.145-1.15,2.201-1.917,3.207
		c0.285,0.48,0.956,0.576,1.486,0.531c4.504-1.152,5.029-6.282,5.559-10.209c0.475-4.409-1.2-8.002-3.692-11.215
		c-1.487-1.58-3.929-1.15-5.604-0.479c1.006-1.486,2.778-2.827,4.793-2.394c1.146,0.046,2.106,1.293,3.304,0.478
		c2.637-1.146,4.888-2.777,7.19-4.55c1.817,0.335,3.449,1.102,5.08,1.962c8.382-4.313,15.952-11.499,20.842-19.691
		c-0.19,2.106-1.342,4.118-2.302,6.086c5.609,2.777,10.733,7.855,11.069,14.611c0.1,1.15,0,2.251-0.19,3.403
		c-0.955-6.612-5.465-13.462-12.125-15.619l-0.671,0.956c6.616,3.068,10.639,10.064,10.974,17.25
		c3.884-0.241,7.526-1.866,10.019-4.695c6.61-6.804,11.45-15.191,14.468-23.908c2.446-8.627-3.833-15.813-9.918-20.418
		c-1.723-1.245-3.544-2.296-5.319-3.256c0.675-2.106,0.574-4.454,0.436-6.661c0.764,1.296,1.29,2.733,1.866,4.123
		c1.006,0.956,2.347,1.342,3.548,2.057c-1.441-1.721-2.688-3.878-2.063-6.371c1.392,1.532,3.644,2.348,5.655,1.487
		c1.916-0.721,3.542-2.208,4.789-3.693c-0.671,2.447-1.917,5.514-4.745,6.375c0.241,0.671-0.524,2.011,0.677,2.011
		c1.48,0.24,2.777-0.481,3.732-1.291c-0.19,1.291-0.86,2.872-2.107,3.543c-0.815,0.43-1.916,0.335-2.826,0.095
		c5.8,5.369,13.131,12.795,10.208,21.897c-2.828,9.248-8.437,17.494-15.193,24.775c-2.967,3.163-6.899,5.8-11.497,5.033
		c-1.438-0.099-2.493-1.296-4.075-1.055c-0.239,3.928-3.402,6.375-6.274,8.627c-4.648,3.207-9.583,5.795-14.668,7.951l-2.25,3.163
		c-2.108,0.91-4.55,0.815-6.997,0.721c-2.682,0-5.22-0.436-7.812-0.721c-1.146,1.391-2.777,2.446-4.838,2.156
		c-1.197-0.24-2.348-0.766-3.403-1.531c-1.817,0.62-3.834,0.811-5.794,1.146c-1.486,5.944-2.638,12.03-3.979,18.064
		c-0.372,1.288-0.931,2.698-2.009,3.498h-7.85c-11.056-4.732-22.097-9.526-33.797-12.65c-2.873-0.766-6.036-0.766-9.008-1.342
		c-0.766-1.051-0.861-2.392-1.151-3.637c-0.956-6.376-2.492-12.462-4.023-18.545l4.599-3.118c1.536,2.781,2.251,5.895,3.257,8.912
		l2.353,8.386c3.497,0.867,6.755,2.158,10.108,3.259c-0.671-5.221-2.011-10.253-3.163-15.332c-3.257-2.063-6.945-3.112-10.543-4.454
		l0.101-0.576c16.624,2.253,30.52,12.41,42.359,23.72c1.101-1.536,1.532-3.452,2.298-5.175l0.669-1.966
		c-4.983-1.632-10.013-4.699-12.505-9.538c-0.911-1.962-0.765-4.788,0-6.756c0.095-1.626,0.526-3.401,2.157-4.073l0.911-0.239
		c0.285-0.812,0.62-1.817,1.53-2.057c0.962-0.146,2.063,0.139,2.829,0.765c-0.861,0.336-2.538,0.671-2.633,2.063
		c0.045,0.671,0.19,1.241,0.57,1.771c-0.81,0.335-2.011,0.62-2.346,1.676c0.721,5.079,5.704,7.856,10.063,9.203
		c-2.397,1.051-4.694-0.387-6.61-1.487c-1.341-0.865-2.587-1.871-3.833-2.827c2.107,4.118,6.275,7.521,10.735,8.723l2.441-7.476
		c-0.671-0.336-1.582-0.576-2.346-0.816c-2.397-0.911-5.035-2.396-5.656-5.128c-0.334-2.538,0.576-4.886,2.682-6.227
		c2.683-1.585,6.135-1.681,9.394-1.44c0.815-2.202,1.341-4.504,2.061-6.757c-1.776-0.335-3.548-1.53-4.268-3.257
		c-1.532-3.068,0.101-6.471,1.922-8.912c2.586-2.878,6.42-4.458,10.394-4.838c-0.046-1.393-0.527-2.688-0.907-4.029
		c-2.251,0.815-5.129,1.2-7.671,0.626c-2.011-0.481-4.072-1.202-5.414-2.924c-2.777,1.817-5.124,3.398-6.945,6.422
		c1.196,1.771,2.156,3.446,3.498,5.078c2.062-3.688,5.605-6.755,9.823-7.091c-3.929,2.107-7.522,5.605-8.532,10.063
		c-0.475,2.827,1.245,5.219,3.453,6.66c-1.967-0.194-4.363-1.347-5.129-3.548c-0.334-1.006-0.431-2.302-0.431-3.308
		c-2.346-2.492-4.217-4.983-6.325-7.812c0.766-1.58,2.013-2.872,3.258-4.213c0-3.599,0.531-7.046,3.118-9.394
		c-0.671,2.348-1.392,4.89-1.005,7.522l0.095,0.095c1.435-0.766,2.682-1.722,4.073-2.633c0-0.815-0.195-1.871,0-2.781
		c-0.816-0.287-1.631-1.007-2.016-1.771c-0.285-0.766-0.336-1.772-0.095-2.542c-0.811-0.477-1.676-1.051-1.822-2.013l2.354,0.531
		c0.043-0.721-0.146-1.39-0.336-2.062c-1.105-0.386-2.637,0.046-3.548-0.865c-1.056-0.956-2.202-1.917-2.587-3.303
		c-0.861-2.972-2.972-6.23-1.246-9.443c2.397-2.156,4.553-4.358,7.666-5.028c-2.156,1.821-4.409,3.833-5.75,6.275
		c0.145,2.922,1.582,5.559,2.827,8.101c1.196,1.627,3.688,1.196,5.415,1.146c3.738-0.334,7.521-0.911,10.399-3.207
		c1.055-1.057,2.201-2.252,3.256-3.498l-4.072-3.694l0.145-0.285c5.75,3.499,11.069,8.051,15.427,13.563
		c-0.525,1.055-1.246,2.011-1.006,3.306c0.145,1.152,1.392,2.158,2.348,2.633c-0.812,1.246-1.677,2.928-0.911,4.509
		c0.574,1.24,1.727,2.252,3.116,2.392c1.292,0,2.203-0.671,3.164-1.386c1.005,0.62,2.25,1.291,3.498,0.765
		c0.961-0.574,1.436-1.771,1.677-2.827c0.911,0.526,2.106,0.766,3.213,0.48c1.341-0.53,2.396-2.017,2.586-3.452
		c0.19-1.486-0.626-2.777-1.776-3.547c0.865-0.667,1.727-1.627,1.632-2.873c-0.19-1.342-1.006-2.733-2.251-3.258
		c-0.962-0.291-2.063-0.291-2.879,0.19c0.146-1.196-0.14-2.587-1.24-3.163c-0.771-0.24-1.727-0.285-2.497,0.051
		c-0.906,0.524-1.241,1.582-1.196,2.682l0.095,0.859c-1.051-0.574-1.146-1.865-1.051-3.017c0.19-1.291,1.006-2.441,2.251-2.922
		c1.146-0.334,2.633-0.334,3.638,0.335c0.911,0.67,1.347,1.726,1.441,2.828c0.861,0.044,1.867,0.044,2.683,0.335
		c7.382-3.738,10.253-11.929,10.829-19.887c2.011,8.817-2.062,16.819-8.146,22.328c0.91,1.487,0.671,3.645-0.145,5.08
		c-1.052,0.67,0.384,1.151,0.384,1.821c1.057,2.302,0.241,4.984-1.101,6.806l0.19,1.297c8.001-3.309,15.288-9.443,20.127-16.92
		c-2.683-10.013-5.13-20.171-10.399-29.133C331.787,360.205,335,366.575,337.157,372.995L337.157,372.995z"/>
	<path fill-rule="evenodd" clip-rule="evenodd" d="M297.144,356.992c-4.023,2.252-8.146,4.599-12.265,6.711l9.678-7.766
		C295.417,356.322,296.284,356.657,297.144,356.992L297.144,356.992z"/>
	<path fill-rule="evenodd" clip-rule="evenodd" d="M263.075,356.372c-0.574,0.334-1.295,0.861-1.485,1.582
		c-0.196,0.62-0.095,1.291,0.24,1.816c0.43,0.48,0.911,0.867,1.53,0.961c0.816,0.145,1.677-0.241,2.158-0.911
		c-0.145,1.006-1.005,1.966-2.012,2.201c-1.005,0.29-2.011-0.045-2.783-0.67c-0.524-0.57-0.81-1.291-0.859-2.057
		c0.094-0.865,0.384-1.727,1.055-2.302C261.59,356.563,262.26,356.372,263.075,356.372L263.075,356.372z"/>
	<path fill-rule="evenodd" clip-rule="evenodd" d="M345.159,361.451c-1.532,0.476-3.448,0.67-4.84-0.291
		c-0.721-0.43-1.202-1.246-1.441-2.011c1.968,1.392,5.225,1.487,7.286,0.095c0.911-0.576,1.581-1.291,2.302-2.011
		C348.131,359.003,346.886,360.781,345.159,361.451L345.159,361.451z"/>
	<path fill-rule="evenodd" clip-rule="evenodd" d="M315.688,362.982c-0.239,1.677-1.295,3.164-2.827,3.979
		c-1.245,0.715-2.972,0.859-4.363,0.334c-0.91-0.334-1.436-0.91-2.057-1.676c0.335-0.095,0.57,0.285,0.956,0.241
		c3.118,0.475,6.564-0.195,8.241-2.927L315.688,362.982L315.688,362.982z"/>
	<path fill-rule="evenodd" clip-rule="evenodd" fill="#FFFFFF" d="M350.479,367.105c-2.303,0.57-4.65-0.195-6.327-1.536
		c2.203-0.285,4.454-0.671,6.371-1.771L350.479,367.105L350.479,367.105z"/>
	<path fill-rule="evenodd" clip-rule="evenodd" d="M233.557,365.524c-1.15,0.045-2.207,0.336-2.777,1.437
		c-0.291,0.955-0.239,2.156,0.476,2.777c0.48,0.43,1.005,0.669,1.582,0.765c-0.62,0.911-0.861,2.207-0.475,3.308
		c0.475,1.438,1.815,2.397,3.302,2.443c1.438,0.145,2.878-0.475,3.453-1.771c0.285-0.43,0.336-0.957,0.431-1.437
		c0.575,0.766,1.485,1.631,2.537,1.582c0.72-0.05,1.296-0.575,1.631-1.2c0.336-0.526,0.146-1.292-0.145-1.817
		c-0.334-0.53-0.715-0.766-1.15-1.15c6.424-0.336,12.75,0.335,19.171,0.574l-0.051,0.476l-7.906,0.72
		c-1.727,18.641-0.43,37.952,5.8,54.436c0.671,1.916,1.722,3.643,2.443,5.51c-0.576-0.236-0.911-0.861-1.247-1.438
		c-9.867-16.768-12.315-37.229-11.019-58.077l-3.548,0.24c0.291,1.486-0.334,2.973-1.626,3.789c-1.056,0.62-2.637,0.715-3.738,0.139
		l-0.96-0.575c-1.247,1.536-2.587,2.732-4.648,2.637c-1.582-0.24-3.209-0.861-4.169-2.348c-0.816-1.531-0.816-3.593-0.141-5.173
		c-0.196-0.431-0.77-0.625-1.055-0.962c-0.911-1.005-1.005-2.441-0.431-3.643c0.475-0.956,1.532-1.53,2.587-1.677
		C232.456,365.189,233.171,365.088,233.557,365.524L233.557,365.524z"/>
	<path fill-rule="evenodd" clip-rule="evenodd" d="M352.344,371.799c0,0.525,0,0.861,0.051,1.392c1.196,0,2.536,0.19,3.593-0.196
		c-3.644,2.827-8.672,0.771-11.98-1.246c3.833,0.96,7.763-0.475,9.873-3.739l0.812-1.291
		C355.031,368.682,353.83,370.554,352.344,371.799L352.344,371.799z"/>
	<path fill-rule="evenodd" clip-rule="evenodd" d="M251.862,368.586l-0.19,0.196c-4.985-0.049-9.924-0.336-14.572-1.296
		c3.977-1.676,8.676,0.145,12.844,0.576C250.616,368.207,251.286,368.351,251.862,368.586L251.862,368.586z"/>
	<path fill-rule="evenodd" clip-rule="evenodd" d="M330.781,375.632c0.766,3.449,1.392,6.946,2.012,10.494l-0.335,0.24
		c-1.006-4.888-2.683-9.487-4.599-14.042c0.524-1.386,0.43-2.968,0.43-4.599C329.535,370.168,330.061,372.95,330.781,375.632
		L330.781,375.632z"/>
	<path fill-rule="evenodd" clip-rule="evenodd" d="M289.092,369.693c0.962,1.771-0.38,3.639-1.101,5.219l1.631,0.867
		c2.682-2.924,6.465-5.034,10.589-4.029c2.777,0.531,5.794,2.302,6.565,5.179c0.141,0.766-0.05,1.48-0.53,2.011
		c-1.866,1.437-3.878,2.443-5.554,4.264l3.353,3.112c0.045,0.145-0.095,0.196-0.145,0.24c-6.996-4.694-13.896-9.627-21.847-12.264
		c-2.158,1.296-3.549,3.593-4.029,5.938c-0.911-4.357,2.061-8.286,5.319-10.638C284.879,368.586,287.706,368.111,289.092,369.693
		L289.092,369.693z"/>
	<path fill-rule="evenodd" clip-rule="evenodd" d="M309.648,373.525c0.481,1.532,0.432,3.498-0.91,4.504
		c0.625-1.391,0.336-3.547-0.816-4.838c-0.43-0.625-1.101-1.151-1.72-1.682C307.492,371.079,309.028,372.28,309.648,373.525
		L309.648,373.525z"/>
	<path fill-rule="evenodd" clip-rule="evenodd" fill="#FFFFFF" d="M302.318,379.276c-1.055,0.669-2.25,1.291-3.352,2.011
		l-3.884-7.572c1.15-0.815,2.732-1.245,4.313-0.96L302.318,379.276L302.318,379.276z"/>
	<path fill-rule="evenodd" clip-rule="evenodd" fill="#FFFFFF" d="M304.285,377.164c-0.051,0.625-0.53,1.2-0.962,1.537l-2.731-5.605
		C302.368,373.621,304.139,375.153,304.285,377.164L304.285,377.164z"/>
	<path fill-rule="evenodd" clip-rule="evenodd" fill="#FFFFFF" d="M296.713,380.136l-5.034-3.162
		c0.721-0.956,1.582-1.821,2.447-2.637C295.082,376.208,295.948,378.269,296.713,380.136L296.713,380.136z"/>
	<path fill-rule="evenodd" clip-rule="evenodd" fill="#FFFFFF" d="M292.926,386.316c-0.622,0.816-1.722,1.821-2.633,2.542
		c-0.721-2.303-1.871-4.504-2.973-6.711c0.241-0.38,0.431-0.715,0.766-1.005C289.813,382.773,291.394,384.545,292.926,386.316
		L292.926,386.316z"/>
	<path fill-rule="evenodd" clip-rule="evenodd" fill="#FFFFFF" d="M288.947,389.864c-0.716,0.625-1.677,0.961-2.538,1.391
		l-2.441-5.509l2.536-2.732C287.991,384.88,288.472,387.422,288.947,389.864L288.947,389.864z"/>
	<path fill-rule="evenodd" clip-rule="evenodd" d="M306.297,394.128c-0.095,0.24-0.336-0.046-0.526-0.095
		c-3.692-3.593-7.715-6.996-10.974-10.973C299.301,385.792,304.09,389.144,306.297,394.128L306.297,394.128z"/>
	<path fill-rule="evenodd" clip-rule="evenodd" fill="#FFFFFF" d="M284.879,391.926c-1.106,0.38-2.207,0.669-3.403,0.715
		c-0.291-1.582-0.96-3.063-1.441-4.599c1.056-0.38,2.112-0.816,3.023-1.531C284.109,388.042,284.588,390.01,284.879,391.926
		L284.879,391.926z"/>
	<path fill-rule="evenodd" clip-rule="evenodd" d="M362.933,386.651c-0.715,0.241-1.245,0.816-1.53,1.536
		c-0.146,0.721,0.05,1.582,0.524,2.158c0.576,0.525,1.247,0.766,2.063,0.62c0.529-0.139,1.056-0.38,1.341-0.911
		c-0.141,0.816-0.62,1.536-1.392,2.013c-0.765,0.384-1.721,0.384-2.536,0.099c-0.576-0.43-1.297-0.865-1.487-1.631
		c-0.285-0.721-0.239-1.772,0.19-2.442C360.682,387.132,361.736,386.512,362.933,386.651L362.933,386.651z"/>
	<path fill-rule="evenodd" clip-rule="evenodd" fill="#FFFFFF" d="M279.029,388.378c0.481,1.436,0.911,2.876,0.96,4.363
		c-1.295,0.045-2.542-0.051-3.693-0.241l-0.811-3.357C276.733,389.048,277.833,388.568,279.029,388.378L279.029,388.378z"/>
	<path fill-rule="evenodd" clip-rule="evenodd" fill="#FACE4A" d="M295.468,389.864c-0.431,0.815-0.576,1.873-0.386,2.878
		c-3.878,3.352-6.996,8.097-12.119,9.774c-2.928,0.524-6.325,0.049-8.198-2.253c-0.384-0.671-0.574-1.392-0.669-2.156
		c3.306,1.436,8.146,1.295,10.974-1.103c-3.643,0.576-8.242,1.388-11.26-1.055c-0.626-0.576-0.96-1.245-1.246-1.962
		c5.218,0.812,11.929,2.012,16.528-0.865c2.112-1.055,3.929-2.732,5.8-4.214L295.468,389.864L295.468,389.864z"/>
	<path fill-rule="evenodd" clip-rule="evenodd" fill="#FFFFFF" d="M274.24,389.339c0.335,0.956,0.715,1.916,0.62,2.967
		c-1.101-0.045-2.202-0.38-3.257-0.57l-0.431-2.303C272.083,389.384,273.184,389.289,274.24,389.339L274.24,389.339z"/>
	<path fill-rule="evenodd" clip-rule="evenodd" d="M261.83,389.915c-0.675,0.234-1.246,0.764-1.486,1.485
		c-0.24,0.766,0,1.531,0.475,2.107c0.625,0.669,1.682,0.955,2.542,0.574c0.336-0.194,0.671-0.384,0.911-0.72
		c-0.145,1.006-0.86,1.821-1.917,2.158c-1.006,0.334-2.206,0-2.877-0.721c-0.475-0.475-0.812-1.196-0.861-2.012
		c0-1.197,0.815-2.347,1.867-2.777C260.965,389.958,261.395,389.769,261.83,389.915L261.83,389.915z"/>
	<path fill-rule="evenodd" clip-rule="evenodd" d="M310.414,395.039c-0.334,1.201-1.34,2.347-2.296,2.922
		c-1.297,0.53-2.922,0.671-4.169-0.046c-0.865-0.574-1.487-1.485-1.681-2.446c0.91,0.961,2.112,1.535,3.502,1.44
		c1.482-0.289,2.828-1.536,3.403-2.922c0.285-0.721,0.336-1.776,0.095-2.587C310.225,392.356,310.654,393.653,310.414,395.039
		L310.414,395.039z"/>
	<path fill-rule="evenodd" clip-rule="evenodd" d="M347.17,400.502v0.046c-3.402,2.587-7.621,5.61-8.531,10.063
		c-0.096,1.151,0.239,2.207,1.055,2.974c1.006,0.86,2.542,0.91,3.789,0.48c3.593-1.771,5.699-5.705,7.426-9.008
		c0.91,1.962,1.966,3.929,2.537,6.085l-1.387,2.347c-0.53-0.671-0.961-1.486-1.295-2.302c-1.342,2.157-2.974,3.789-4.885,5.61
		c-2.396,1.625-6.136,2.536-8.722,0.86c-1.968-1.247-2.733-3.688-2.543-6.04c0.386-4.503,3.067-8.718,6.996-10.969l-2.202-1.922
		l2.397-1.532C343.672,398.106,345.589,399.066,347.17,400.502L347.17,400.502z"/>
	<path fill-rule="evenodd" clip-rule="evenodd" d="M299.156,409.225c0.625,1.532,0.721,3.544-0.38,4.884
		c0.475,2.783,0,5.896-2.302,7.812c-0.671,0.53-1.437,1.006-2.252,1.342c1.627-2.537,4.12-5.75,2.252-9.103
		c-0.291-0.525-0.625-1.057-1.202-1.296c-1.676-0.38-3.063,0.53-4.454,1.15c0.721-1.485,2.013-2.972,3.834-3.208
		c0.859-0.049,1.727,0.096,2.441,0.381c0.385-0.671,0.195-1.962-0.38-2.631c-0.72-0.816-1.726-1.058-2.876-0.963
		c0.911-0.67,2.251-1.1,3.357-0.619C298.15,407.403,298.776,408.265,299.156,409.225L299.156,409.225z"/>
	<path fill-rule="evenodd" clip-rule="evenodd" d="M305.816,410.662c0.19,1.631,0.671,3.161,1.247,4.647
		c1.727,0.046,3.497-0.195,5.174-0.625c-1.341,0.96-3.018,1.536-4.648,1.916c0.29,1.106,0.77,2.207,1.201,3.309l-2.013-0.24
		l-0.53-2.777l-2.586,0.38c-0.285-0.621-0.861-1.291-1.342-1.821h3.738l-0.479-4.788H305.816L305.816,410.662z"/>
	<path fill-rule="evenodd" clip-rule="evenodd" d="M266.668,419.624c-0.865,0.334-1.58,1.195-1.58,2.251
		c0,0.671,0.38,1.246,0.955,1.722c0.531,0.291,1.247,0.53,1.873,0.291c0.43-0.19,0.81-0.386,1.15-0.816h0.045
		c-0.145,0.765-0.671,1.485-1.392,1.917c-0.81,0.43-1.772,0.385-2.631,0.05c-0.912-0.436-1.677-1.486-1.582-2.637
		c0-0.816,0.335-1.677,1.006-2.158C265.132,419.764,265.853,419.574,266.668,419.624L266.668,419.624z"/>
	<path fill-rule="evenodd" clip-rule="evenodd" fill="#E53230" d="M327.574,435.482c-0.102,1.435-0.341,2.781-0.771,4.022
		c-4.214,3.403-9.197,6.04-14.327,7.717c2.206-4.89,1.296-11.739-2.537-15.714l-0.626-0.626c2.542-1.916,5.13-3.643,7.526-5.749
		c5.219,1.917,7.807,7.616,8.143,12.986c1.536-4.264-0.045-9.008-3.019-12.315c-0.956-0.962-1.962-1.968-3.162-2.783l0.765-0.859
		C324.312,424.988,327.813,429.731,327.574,435.482L327.574,435.482z"/>
	<path fill-rule="evenodd" clip-rule="evenodd" fill="#FACE4A" d="M280.851,429.972l0.386,0.241
		c0.816-1.968,1.341-4.124,2.106-6.135l1.006,0.43c-0.671,2.922-1.386,5.846-2.063,8.722c-1.101-0.335-2.251-0.524-3.352-0.715
		l2.827-9.633l0.816,0.62L280.851,429.972L280.851,429.972z"/>
	<path fill-rule="evenodd" clip-rule="evenodd" fill="#214B9B" d="M305.291,431.408c3.542,2.492,5.604,6.564,5.173,11.024
		c-0.285,3.737-1.484,7.281-3.832,10.108l-1.006,0.239c2.106-4.838,4.408-10.543,2.683-16.099c-0.387-0.814-0.816-1.631-1.532-2.302
		c0.91,2.828,1.247,6.471,0.576,9.583c-0.721,3.309-1.872,6.375-3.693,9.152c-2.777,0.721-5.56,0.146-8.482,0.146
		c2.922-4.939,3.738-12.126,0.96-17.395l-1.581-2.447c2.491-0.715,4.599-2.683,7.141-3.303
		C303.133,429.972,304.09,430.882,305.291,431.408L305.291,431.408z"/>
	<path fill-rule="evenodd" clip-rule="evenodd" d="M332.508,442.382c-0.525,0.19-1.246,0.766-1.436,1.392
		c-0.241,0.524-0.196,1.291,0.14,1.771c0.29,0.576,0.961,1.006,1.581,1.15c0.866,0.146,1.631-0.289,2.157-0.911
		c-0.095,1.006-1.051,1.968-2.012,2.202c-1.195,0.291-2.397-0.14-3.067-1.05c-0.43-0.721-0.672-1.582-0.481-2.397
		c0.196-0.721,0.721-1.581,1.486-1.916C331.356,442.433,331.982,442.332,332.508,442.382L332.508,442.382z"/>
	<path fill-rule="evenodd" clip-rule="evenodd" fill="#FACE4A" d="M226.177,458.385c0.815,2.018,3.257,1.297,4.838,2.063
		c2.017,0.575,3.978,1.101,5.895,1.871c-0.241,0.476-0.766,1.051-1.292,1.436c-3.496-0.815-7.045-1.58-10.593-2.346
		c-0.525-0.386-0.576-1.006-0.766-1.536c-1.101-5.46-2.251-10.924-3.878-16.148c0.19-0.241,0.526-0.336,0.811-0.526l0.194,0.38
		L226.177,458.385L226.177,458.385z"/>
	<path fill-rule="evenodd" clip-rule="evenodd" fill="#FACE4A" d="M279.079,446.746l-1.772,8.046l-1.681-3.207l0.77-3.163
		c-0.05-0.24-0.384-0.05-0.479-0.195c-0.431,0.961-0.576,2.017-0.911,2.973l-1.677,0.095l1.436-5.028
		C276.202,446.505,277.592,446.695,279.079,446.746L279.079,446.746z"/>
	<path fill-rule="evenodd" clip-rule="evenodd" fill="#FFFFFF" d="M271.218,464.425c-0.285,0.48-0.671,1.006-1.246,1.101
		c-0.431,0.096-0.812-0.095-1.146-0.285c1.721-3.213,2.202-6.996,3.403-10.448c0.57-0.095,1.196-0.095,1.772-0.145L271.218,464.425
		L271.218,464.425z"/>
	<path fill-rule="evenodd" clip-rule="evenodd" fill="#FACE4A" d="M272.898,473.769c-0.53,1.295-0.384,3.162-2.016,3.737
		c-1.916,1.2-3.973-0.146-5.65-0.86l-7.381-3.789c0.336-0.525,1.005-1.006,1.532-1.53l8.576,4.504l0.386-0.387l-0.334-0.335
		l-19.121-10.442c-0.046-0.051-0.096-0.097-0.046-0.146c3.593,1.196,7.333,2.207,10.779,3.789c0-2.922-0.19-5.99-0.62-8.722
		l10.348,8.146c0.432,0.141,1.058,0.335,1.487,0c0.816-0.53,1.291-1.581,1.582-2.541l2.296-9.919l1.821,3.018L272.898,473.769
		L272.898,473.769z"/>
	<path fill-rule="evenodd" clip-rule="evenodd" fill="#FFFFFF" d="M309.729,366.005c3.613-0.121,7.085-2.922,5.965-5.315
		c-1.216-2.597-3.108-2.837-6.601-2.837c-3.498,0-5.689,0.091-5.689,2.958C303.404,363.677,305.121,366.159,309.729,366.005
		L309.729,366.005z"/>
	<path fill-rule="evenodd" clip-rule="evenodd" fill="#E53230" d="M306.657,361.03l3.352,0.481c0,0,0.481,0,0,0.235
		c-0.479,0.24-2.997,1.321-2.997,1.321s1.081,1.556,3.479,1.136c2.396-0.42,3.412-1.978,3.472-2.752
		c0.075-0.951-0.595-2.963-3.172-2.818C306.981,358.849,306.657,361.03,306.657,361.03L306.657,361.03z"/>
	<path fill-rule="evenodd" clip-rule="evenodd" d="M314.823,358.908c0.576,0.721,0.875,1.677,1.116,2.587
		c-0.386-0.911-1.592-1.531-2.457-1.917c-0.56-0.18-1.771-0.98-4.84-0.525c-3.308,0.141-7.76,0.956-10.063-1.676v-0.145
		c3.928,0.62,7.666-0.146,11.5-0.481C311.901,356.802,313.723,357.378,314.823,358.908L314.823,358.908z"/>
	<path fill-rule="evenodd" clip-rule="evenodd" fill="#214B9B" d="M319.472,421.945c0,0,11.084,5.444,7.313,17.489
		c-0.116,0.36,4.548-3.713,4.548-3.713l2.276-0.36c0,0,0-12.1-10.898-17.129L319.472,421.945L319.472,421.945z"/>
	<path fill-rule="evenodd" clip-rule="evenodd" fill="#FFFFFF" d="M318.636,423.021c0,0,9.943,6.711,5.51,18.571l2.639-1.917
		c0,0,4.428-11.62-7.553-17.729L318.636,423.021L318.636,423.021z"/>
	<path fill-rule="evenodd" clip-rule="evenodd" fill="#FFFFFF" d="M264.188,361.03c1.495,0,2.712-1.101,2.712-2.457
		c0-1.356-1.217-2.457-2.712-2.457c-1.497,0-2.714,1.101-2.714,2.457C261.474,359.929,262.691,361.03,264.188,361.03L264.188,361.03
		z"/>
	<path fill-rule="evenodd" clip-rule="evenodd" fill="#FFFFFF" d="M262.24,394.813c1.497,0,2.712-1.101,2.712-2.457
		c0-1.356-1.215-2.457-2.712-2.457c-1.496,0-2.712,1.101-2.712,2.457C259.528,393.712,260.744,394.813,262.24,394.813
		L262.24,394.813z"/>
	<path fill-rule="evenodd" clip-rule="evenodd" fill="#FFFFFF" d="M266.974,424.643c1.497,0,2.698-1.131,2.413-2.457
		c-0.24-1.115-0.916-2.457-2.413-2.457c-1.495,0-2.712,1.101-2.712,2.457C264.261,423.541,265.479,424.643,266.974,424.643
		L266.974,424.643z"/>
	<path fill-rule="evenodd" clip-rule="evenodd" fill="#FFFFFF" d="M333.038,447.222c1.502,0,2.292-1.041,2.292-2.393
		c0-1.36-0.97-2.401-2.473-2.401c-1.496,0-2.525,0.98-2.525,2.337C330.332,446.125,331.541,447.222,333.038,447.222L333.038,447.222
		z"/>
	<path fill-rule="evenodd" clip-rule="evenodd" fill="#FFFFFF" d="M363.469,391.4c1.495,0,2.172-1.101,2.172-2.457
		c0-1.356-1.572-2.336-2.172-2.457c-1.467-0.295-2.712,1.101-2.712,2.457C360.757,390.299,361.973,391.4,363.469,391.4
		L363.469,391.4z"/>
	<path fill-rule="evenodd" clip-rule="evenodd" fill="#FFFFFF" d="M361.672,359.595c1.496,0,2.052-1.101,2.052-2.457
		c0-1.355-0.916-2.457-2.412-2.457c-1.497,0-2.352,1.101-2.352,2.457C358.96,358.494,360.175,359.595,361.672,359.595
		L361.672,359.595z"/>
</g>
</svg>
