<?xml version="1.0" encoding="UTF-8"?>
<!DOCTYPE svg PUBLIC "-//W3C//DTD SVG 1.1//EN" "http://www.w3.org/Graphics/SVG/1.1/DTD/svg11.dtd">
<!-- Creator: CorelDRAW X6 -->
<svg xmlns="http://www.w3.org/2000/svg" xml:space="preserve" width="135.467mm" height="76.2mm" version="1.1" style="shape-rendering:geometricPrecision; text-rendering:geometricPrecision; image-rendering:optimizeQuality; fill-rule:evenodd; clip-rule:evenodd"
viewBox="0 0 13547 7620"
 xmlns:xlink="http://www.w3.org/1999/xlink">
 <defs>
  <style type="text/css">
   <![CDATA[
    .fil1 {fill:none}
    .fil0 {fill:black}
   ]]>
  </style>
 </defs>
 <g id="图层_x0020_1">
  <metadata id="CorelCorpID_0Corel-Layer"/>
  <g id="_134069280">
   <path class="fil0" d="M4574 1528c-118,175 -533,1083 -629,1255 -266,477 -521,1007 -787,1451 -55,92 -117,209 -228,240 -58,10 -112,-29 -122,-86 -9,-50 20,-98 66,-116 59,-55 191,-301 208,-332 315,-576 689,-1268 974,-1856 50,-103 369,-997 594,-721 34,48 23,114 -25,148 -16,11 -33,17 -51,19z"/>
  </g>
  <path class="fil1" d="M4564 1423c-54,-75 -220,318 -252,380 -236,458 -358,799 -653,1249 -115,175 -617,1295 -747,1317"/>
  <g id="_134068680">
   <path class="fil0" d="M2930 4280c896,-25 1683,-172 2617,-182 1131,-12 2254,17 3377,4 58,0 106,47 106,106 0,58 -47,106 -106,106 -1123,13 -2245,-16 -3375,-4 -933,10 -1721,157 -2619,182 -58,0 -106,-47 -106,-106 0,-58 47,-106 106,-106z"/>
  </g>
  <path class="fil1" d="M2930 4386c702,0 1515,-173 2269,-179 942,-7 1788,-30 2735,4 335,12 656,-3 991,-3"/>
  <g id="_134068080">
   <path class="fil0" d="M4712 1209c1436,-130 3113,44 4569,51 398,2 232,-5 560,17 57,11 95,67 84,124 -11,57 -67,95 -124,84 -292,-17 -139,-11 -520,-13 -1443,-6 -3105,-178 -4528,-55 -57,11 -113,-26 -124,-83 -11,-57 26,-113 83,-124z"/>
  </g>
  <path class="fil1" d="M4733 1313c417,-83 3402,0 3914,42 274,23 1027,-3 1175,25"/>
  <g id="_134067552">
   <path class="fil0" d="M9978 1405c-108,280 -787,2325 -933,2722 -1,7 -4,14 -6,21 0,0 -14,33 -14,33l0 0c-3,7 -5,11 -6,12 -76,100 -234,50 -183,-107l0 0 0 0c2,-7 5,-13 8,-20 1,-3 2,-5 4,-7 339,-847 592,-1846 937,-2736 23,-54 85,-79 139,-55 54,23 79,85 55,139z"/>
  </g>
  <path class="fil1" d="M9881 1363c-185,430 -353,1034 -528,1506 -100,269 -323,1095 -426,1271l14 -33"/>
 </g>
</svg>
